<svg xmlns="http://www.w3.org/2000/svg" xmlns:xlink="http://www.w3.org/1999/xlink" width="1080" zoomAndPan="magnify" viewBox="0 0 810 809.999993" height="1080" preserveAspectRatio="xMidYMid meet" version="1.0"><defs><g/></defs><g fill="#ffffff" fill-opacity="1"><g transform="translate(63.337653, 259.930464)"><g><path d="M 4.46875 -61.859375 C 4.46875 -63.171875 5.015625 -63.828125 6.109375 -63.828125 L 52.5625 -63.828125 C 53.59375 -63.828125 54.109375 -63.226562 54.109375 -62.03125 L 54.03125 -52.046875 C 54.03125 -50.492188 53.285156 -49.71875 51.796875 -49.71875 L 25.984375 -49.71875 C 24.660156 -49.71875 24 -49.175781 24 -48.09375 L 24 -40.78125 C 24 -40.207031 24.140625 -39.757812 24.421875 -39.4375 C 24.710938 -39.125 25.085938 -38.96875 25.546875 -38.96875 L 41.03125 -38.96875 C 42.238281 -38.96875 42.84375 -38.394531 42.84375 -37.25 L 42.84375 -26.578125 C 42.84375 -25.609375 42.328125 -25.125 41.296875 -25.125 L 25.375 -25.125 C 24.976562 -25.125 24.648438 -25.007812 24.390625 -24.78125 C 24.128906 -24.550781 24 -24.265625 24 -23.921875 L 24 -15.3125 C 24 -14.851562 24.070312 -14.535156 24.21875 -14.359375 C 24.363281 -14.191406 24.632812 -14.109375 25.03125 -14.109375 L 53 -14.109375 C 54.257812 -14.109375 54.890625 -13.5625 54.890625 -12.46875 L 54.890625 -1.890625 C 54.890625 -1.316406 54.71875 -0.859375 54.375 -0.515625 C 54.03125 -0.171875 53.515625 0 52.828125 0 L 6.796875 0 C 5.929688 0 5.328125 -0.171875 4.984375 -0.515625 C 4.640625 -0.859375 4.46875 -1.40625 4.46875 -2.15625 Z M 4.46875 -61.859375 "/></g></g></g><g fill="#ffffff" fill-opacity="1"><g transform="translate(121.057237, 259.930464)"><g><path d="M 4.46875 -61.859375 C 4.46875 -62.484375 4.609375 -62.96875 4.890625 -63.3125 C 5.179688 -63.65625 5.585938 -63.828125 6.109375 -63.828125 L 22.453125 -63.828125 C 23.484375 -63.828125 24 -63.226562 24 -62.03125 L 24 -15.3125 C 24 -14.851562 24.070312 -14.535156 24.21875 -14.359375 C 24.363281 -14.191406 24.632812 -14.109375 25.03125 -14.109375 L 50.9375 -14.109375 C 52.25 -14.109375 52.90625 -13.5625 52.90625 -12.46875 L 52.90625 -1.890625 C 52.90625 -1.316406 52.71875 -0.859375 52.34375 -0.515625 C 51.976562 -0.171875 51.453125 0 50.765625 0 L 6.796875 0 C 5.929688 0 5.328125 -0.171875 4.984375 -0.515625 C 4.640625 -0.859375 4.46875 -1.40625 4.46875 -2.15625 Z M 4.46875 -61.859375 "/></g></g></g><g fill="#ffffff" fill-opacity="1"><g transform="translate(176.368263, 259.930464)"><g><path d="M 4.46875 -61.859375 C 4.46875 -63.171875 5.015625 -63.828125 6.109375 -63.828125 L 52.5625 -63.828125 C 53.59375 -63.828125 54.109375 -63.226562 54.109375 -62.03125 L 54.03125 -52.046875 C 54.03125 -50.492188 53.285156 -49.71875 51.796875 -49.71875 L 25.984375 -49.71875 C 24.660156 -49.71875 24 -49.175781 24 -48.09375 L 24 -40.78125 C 24 -40.207031 24.140625 -39.757812 24.421875 -39.4375 C 24.710938 -39.125 25.085938 -38.96875 25.546875 -38.96875 L 41.03125 -38.96875 C 42.238281 -38.96875 42.84375 -38.394531 42.84375 -37.25 L 42.84375 -26.578125 C 42.84375 -25.609375 42.328125 -25.125 41.296875 -25.125 L 25.375 -25.125 C 24.976562 -25.125 24.648438 -25.007812 24.390625 -24.78125 C 24.128906 -24.550781 24 -24.265625 24 -23.921875 L 24 -15.3125 C 24 -14.851562 24.070312 -14.535156 24.21875 -14.359375 C 24.363281 -14.191406 24.632812 -14.109375 25.03125 -14.109375 L 53 -14.109375 C 54.257812 -14.109375 54.890625 -13.5625 54.890625 -12.46875 L 54.890625 -1.890625 C 54.890625 -1.316406 54.71875 -0.859375 54.375 -0.515625 C 54.03125 -0.171875 53.515625 0 52.828125 0 L 6.796875 0 C 5.929688 0 5.328125 -0.171875 4.984375 -0.515625 C 4.640625 -0.859375 4.46875 -1.40625 4.46875 -2.15625 Z M 4.46875 -61.859375 "/></g></g></g><g fill="#ffffff" fill-opacity="1"><g transform="translate(234.087847, 259.930464)"><g><path d="M 60.828125 -63.828125 C 61.335938 -63.828125 61.75 -63.671875 62.0625 -63.359375 C 62.382812 -63.046875 62.546875 -62.628906 62.546875 -62.109375 C 62.546875 -61.765625 62.515625 -61.507812 62.453125 -61.34375 L 42.5 -2.15625 C 42.09375 -0.71875 41.03125 0 39.3125 0 L 25.375 0 C 23.65625 0 22.597656 -0.71875 22.203125 -2.15625 L 2.234375 -61.34375 C 2.117188 -61.6875 2.0625 -61.941406 2.0625 -62.109375 C 2.0625 -62.628906 2.234375 -63.046875 2.578125 -63.359375 C 2.921875 -63.671875 3.351562 -63.828125 3.875 -63.828125 L 20.46875 -63.828125 C 21.5625 -63.828125 22.28125 -63.226562 22.625 -62.03125 L 34.15625 -24.265625 C 34.269531 -23.859375 34.410156 -23.65625 34.578125 -23.65625 C 34.691406 -23.65625 34.835938 -23.882812 35.015625 -24.34375 L 45.765625 -62.03125 C 45.878906 -62.601562 46.148438 -63.046875 46.578125 -63.359375 C 47.015625 -63.671875 47.488281 -63.828125 48 -63.828125 Z M 60.828125 -63.828125 "/></g></g></g><g fill="#ffffff" fill-opacity="1"><g transform="translate(298.689059, 259.930464)"><g><path d="M 3.703125 0 C 3.242188 0 2.867188 -0.15625 2.578125 -0.46875 C 2.296875 -0.789062 2.15625 -1.238281 2.15625 -1.8125 C 2.15625 -2.207031 2.238281 -2.664062 2.40625 -3.1875 L 23.234375 -61.859375 C 23.515625 -62.597656 23.828125 -63.109375 24.171875 -63.390625 C 24.515625 -63.679688 25.0625 -63.828125 25.8125 -63.828125 L 42.75 -63.828125 C 43.445312 -63.828125 44.066406 -63.613281 44.609375 -63.1875 C 45.148438 -62.757812 45.566406 -62.203125 45.859375 -61.515625 L 66.5 -2.921875 C 66.613281 -2.460938 66.671875 -2.117188 66.671875 -1.890625 C 66.671875 -1.378906 66.554688 -0.9375 66.328125 -0.5625 C 66.097656 -0.1875 65.753906 0 65.296875 0 L 48.4375 0 C 47.457031 0 46.828125 -0.488281 46.546875 -1.46875 L 43.1875 -11.359375 C 43.007812 -11.753906 42.847656 -12.023438 42.703125 -12.171875 C 42.566406 -12.316406 42.296875 -12.390625 41.890625 -12.390625 L 23.65625 -12.390625 C 22.96875 -12.390625 22.539062 -12.070312 22.375 -11.4375 L 18.84375 -1.296875 C 18.5 -0.429688 17.8125 0 16.78125 0 Z M 37.59375 -27.015625 C 38.226562 -27.015625 38.546875 -27.300781 38.546875 -27.875 C 38.546875 -27.988281 38.488281 -28.273438 38.375 -28.734375 L 33.203125 -43.453125 C 33.085938 -43.734375 32.914062 -43.875 32.6875 -43.875 C 32.457031 -43.875 32.285156 -43.734375 32.171875 -43.453125 L 26.921875 -28.828125 C 26.804688 -28.585938 26.75 -28.296875 26.75 -27.953125 C 26.75 -27.328125 27.09375 -27.015625 27.78125 -27.015625 Z M 37.59375 -27.015625 "/></g></g></g><g fill="#ffffff" fill-opacity="1"><g transform="translate(367.419247, 259.930464)"><g><path d="M 2.40625 -61.859375 C 2.40625 -62.429688 2.59375 -62.898438 2.96875 -63.265625 C 3.34375 -63.640625 3.875 -63.828125 4.5625 -63.828125 L 56 -63.828125 C 56.6875 -63.828125 57.21875 -63.640625 57.59375 -63.265625 C 57.96875 -62.898438 58.15625 -62.429688 58.15625 -61.859375 L 58.15625 -51.625 C 58.15625 -50.53125 57.523438 -49.984375 56.265625 -49.984375 L 41.03125 -49.984375 C 40.34375 -49.984375 40 -49.695312 40 -49.125 L 40 -1.890625 C 40 -1.265625 39.851562 -0.789062 39.5625 -0.46875 C 39.28125 -0.15625 38.882812 0 38.375 0 L 22.03125 0 C 20.988281 0 20.46875 -0.570312 20.46875 -1.71875 L 20.46875 -48.78125 C 20.46875 -49.582031 20.15625 -49.984375 19.53125 -49.984375 L 4.390625 -49.984375 C 3.066406 -49.984375 2.40625 -50.53125 2.40625 -51.625 Z M 2.40625 -61.859375 "/></g></g></g><g fill="#ffffff" fill-opacity="1"><g transform="translate(427.977515, 259.930464)"><g><path d="M 4.46875 -61.859375 C 4.46875 -63.171875 5.015625 -63.828125 6.109375 -63.828125 L 52.5625 -63.828125 C 53.59375 -63.828125 54.109375 -63.226562 54.109375 -62.03125 L 54.03125 -52.046875 C 54.03125 -50.492188 53.285156 -49.71875 51.796875 -49.71875 L 25.984375 -49.71875 C 24.660156 -49.71875 24 -49.175781 24 -48.09375 L 24 -40.78125 C 24 -40.207031 24.140625 -39.757812 24.421875 -39.4375 C 24.710938 -39.125 25.085938 -38.96875 25.546875 -38.96875 L 41.03125 -38.96875 C 42.238281 -38.96875 42.84375 -38.394531 42.84375 -37.25 L 42.84375 -26.578125 C 42.84375 -25.609375 42.328125 -25.125 41.296875 -25.125 L 25.375 -25.125 C 24.976562 -25.125 24.648438 -25.007812 24.390625 -24.78125 C 24.128906 -24.550781 24 -24.265625 24 -23.921875 L 24 -15.3125 C 24 -14.851562 24.070312 -14.535156 24.21875 -14.359375 C 24.363281 -14.191406 24.632812 -14.109375 25.03125 -14.109375 L 53 -14.109375 C 54.257812 -14.109375 54.890625 -13.5625 54.890625 -12.46875 L 54.890625 -1.890625 C 54.890625 -1.316406 54.71875 -0.859375 54.375 -0.515625 C 54.03125 -0.171875 53.515625 0 52.828125 0 L 6.796875 0 C 5.929688 0 5.328125 -0.171875 4.984375 -0.515625 C 4.640625 -0.859375 4.46875 -1.40625 4.46875 -2.15625 Z M 4.46875 -61.859375 "/></g></g></g><g fill="#ffffff" fill-opacity="1"><g transform="translate(485.697087, 259.930464)"><g/></g></g><g fill="#ffffff" fill-opacity="1"><g transform="translate(502.90113, 259.930464)"><g><path d="M 63.0625 -63.828125 C 64.09375 -63.828125 64.609375 -63.484375 64.609375 -62.796875 C 64.609375 -62.628906 64.492188 -62.316406 64.265625 -61.859375 L 44.140625 -29.34375 C 43.734375 -28.757812 43.488281 -28.125 43.40625 -27.4375 C 43.320312 -26.75 43.28125 -25.488281 43.28125 -23.65625 L 43.28125 -2.5 C 43.28125 -1.582031 43.046875 -0.9375 42.578125 -0.5625 C 42.117188 -0.1875 41.40625 0 40.4375 0 L 25.984375 0 C 25.117188 0 24.53125 -0.171875 24.21875 -0.515625 C 23.90625 -0.859375 23.75 -1.40625 23.75 -2.15625 L 23.75 -24.78125 C 23.75 -25.582031 23.660156 -26.222656 23.484375 -26.703125 C 23.316406 -27.191406 23.003906 -27.8125 22.546875 -28.5625 L 2.40625 -61.421875 C 2.175781 -61.828125 2.0625 -62.203125 2.0625 -62.546875 C 2.0625 -63.398438 2.691406 -63.828125 3.953125 -63.828125 L 21.25 -63.828125 C 22.050781 -63.828125 22.640625 -63.710938 23.015625 -63.484375 C 23.390625 -63.253906 23.773438 -62.769531 24.171875 -62.03125 L 34.75 -42.921875 C 35.039062 -42.347656 35.269531 -42.0625 35.4375 -42.0625 C 35.726562 -42.0625 35.988281 -42.320312 36.21875 -42.84375 L 46.625 -62.03125 C 46.96875 -62.769531 47.335938 -63.253906 47.734375 -63.484375 C 48.140625 -63.710938 48.742188 -63.828125 49.546875 -63.828125 Z M 63.0625 -63.828125 "/></g></g></g><g fill="#ffffff" fill-opacity="1"><g transform="translate(569.480812, 259.930464)"><g><path d="M 33.640625 0.859375 C 27.390625 0.859375 21.925781 -0.472656 17.25 -3.140625 C 12.570312 -5.804688 8.972656 -9.59375 6.453125 -14.5 C 3.929688 -19.40625 2.671875 -25.15625 2.671875 -31.75 C 2.671875 -38.34375 3.945312 -44.117188 6.5 -49.078125 C 9.050781 -54.035156 12.660156 -57.878906 17.328125 -60.609375 C 22.003906 -63.335938 27.441406 -64.703125 33.640625 -64.703125 C 39.773438 -64.703125 45.164062 -63.335938 49.8125 -60.609375 C 54.457031 -57.878906 58.054688 -54.035156 60.609375 -49.078125 C 63.160156 -44.117188 64.4375 -38.34375 64.4375 -31.75 C 64.4375 -25.207031 63.171875 -19.46875 60.640625 -14.53125 C 58.117188 -9.601562 54.535156 -5.804688 49.890625 -3.140625 C 45.242188 -0.472656 39.828125 0.859375 33.640625 0.859375 Z M 33.640625 -12.5625 C 36.160156 -12.5625 38.164062 -13.175781 39.65625 -14.40625 C 41.144531 -15.644531 42.234375 -17.640625 42.921875 -20.390625 C 43.617188 -23.140625 43.96875 -26.835938 43.96875 -31.484375 C 43.96875 -38.597656 43.160156 -43.703125 41.546875 -46.796875 C 39.941406 -49.898438 37.304688 -51.453125 33.640625 -51.453125 C 29.910156 -51.453125 27.226562 -49.898438 25.59375 -46.796875 C 23.957031 -43.703125 23.140625 -38.597656 23.140625 -31.484375 C 23.140625 -26.835938 23.484375 -23.140625 24.171875 -20.390625 C 24.859375 -17.640625 25.960938 -15.644531 27.484375 -14.40625 C 29.003906 -13.175781 31.054688 -12.5625 33.640625 -12.5625 Z M 33.640625 -12.5625 "/></g></g></g><g fill="#ffffff" fill-opacity="1"><g transform="translate(636.576579, 259.930464)"><g><path d="M 58.84375 -25.203125 C 58.84375 -15.796875 56.460938 -9.097656 51.703125 -5.109375 C 46.941406 -1.128906 40.144531 0.859375 31.3125 0.859375 C 21.394531 0.859375 14.328125 -1.429688 10.109375 -6.015625 C 5.890625 -10.609375 3.78125 -17.578125 3.78125 -26.921875 L 3.78125 -61.859375 C 3.78125 -62.484375 3.921875 -62.96875 4.203125 -63.3125 C 4.492188 -63.65625 4.898438 -63.828125 5.421875 -63.828125 L 21.765625 -63.828125 C 22.796875 -63.828125 23.3125 -63.226562 23.3125 -62.03125 L 23.3125 -24.859375 C 23.3125 -20.617188 24.128906 -17.550781 25.765625 -15.65625 C 27.398438 -13.757812 29.738281 -12.8125 32.78125 -12.8125 C 35.757812 -12.8125 38.164062 -13.757812 40 -15.65625 C 41.832031 -17.550781 42.75 -20.707031 42.75 -25.125 L 42.75 -61.859375 C 42.75 -63.171875 43.296875 -63.828125 44.390625 -63.828125 L 57.296875 -63.828125 C 58.328125 -63.828125 58.84375 -63.226562 58.84375 -62.03125 Z M 58.84375 -25.203125 "/></g></g></g><g fill="#ffffff" fill-opacity="1"><g transform="translate(699.199323, 259.930464)"><g><path d="M 60.3125 -2.75 C 60.425781 -2.519531 60.484375 -2.207031 60.484375 -1.8125 C 60.484375 -1.289062 60.320312 -0.859375 60 -0.515625 C 59.6875 -0.171875 59.273438 0 58.765625 0 L 42.0625 0 C 40.863281 0 40.09375 -0.601562 39.75 -1.8125 L 31.65625 -24 C 31.488281 -24.457031 31.203125 -24.800781 30.796875 -25.03125 C 30.398438 -25.257812 29.800781 -25.375 29 -25.375 L 25.03125 -25.375 C 24.6875 -25.375 24.425781 -25.257812 24.25 -25.03125 C 24.082031 -24.800781 24 -24.601562 24 -24.4375 L 24 -2.5 C 24 -1.582031 23.769531 -0.9375 23.3125 -0.5625 C 22.851562 -0.1875 22.132812 0 21.15625 0 L 6.703125 0 C 5.847656 0 5.257812 -0.171875 4.9375 -0.515625 C 4.625 -0.859375 4.46875 -1.40625 4.46875 -2.15625 L 4.46875 -61.859375 C 4.46875 -63.171875 5.015625 -63.828125 6.109375 -63.828125 L 34.84375 -63.828125 C 43.15625 -63.828125 49.601562 -62.234375 54.1875 -59.046875 C 58.78125 -55.867188 61.078125 -51.382812 61.078125 -45.59375 C 61.078125 -41.632812 60.03125 -38.109375 57.9375 -35.015625 C 55.84375 -31.921875 53.132812 -29.738281 49.8125 -28.46875 C 49.46875 -28.300781 49.296875 -28.015625 49.296875 -27.609375 C 49.296875 -27.441406 49.351562 -27.1875 49.46875 -26.84375 Z M 34.0625 -38.203125 C 36.25 -38.203125 37.925781 -38.757812 39.09375 -39.875 C 40.269531 -40.988281 40.859375 -42.492188 40.859375 -44.390625 C 40.859375 -46.515625 40.15625 -48.164062 38.75 -49.34375 C 37.351562 -50.519531 35.617188 -51.109375 33.546875 -51.109375 L 25.984375 -51.109375 C 25.234375 -51.109375 24.710938 -50.976562 24.421875 -50.71875 C 24.140625 -50.457031 24 -50.007812 24 -49.375 L 24 -40 C 24 -39.375 24.097656 -38.914062 24.296875 -38.625 C 24.503906 -38.34375 24.894531 -38.203125 25.46875 -38.203125 Z M 34.0625 -38.203125 "/></g></g></g></svg>