<svg xmlns="http://www.w3.org/2000/svg" xmlns:xlink="http://www.w3.org/1999/xlink" width="500" zoomAndPan="magnify" viewBox="0 0 375 374.999991" height="500" preserveAspectRatio="xMidYMid meet" version="1.0"><defs><g/><clipPath id="99977e1819"><path d="M 37.5 149.378906 L 105.199219 149.378906 L 105.199219 217.078125 L 37.5 217.078125 Z M 37.5 149.378906 " clip-rule="nonzero"/></clipPath></defs><g clip-path="url(#99977e1819)"><path fill="#ffffff" d="M 36.953125 180.636719 C 38.726562 180.636719 40.167969 182.074219 40.167969 183.851562 C 40.167969 185.628906 38.726562 187.070312 36.953125 187.070312 C 35.175781 187.070312 33.734375 185.628906 33.734375 183.851562 C 33.734375 182.078125 35.175781 180.636719 36.953125 180.636719 M 39 162.546875 C 40.515625 162.546875 41.746094 163.777344 41.746094 165.296875 C 41.746094 166.8125 40.515625 168.042969 39 168.042969 C 37.480469 168.042969 36.25 166.8125 36.25 165.296875 C 36.25 163.777344 37.480469 162.546875 39 162.546875 Z M 50.800781 170.882812 C 53.191406 170.882812 55.128906 172.820312 55.128906 175.210938 C 55.128906 177.601562 53.191406 179.542969 50.800781 179.542969 C 48.40625 179.542969 46.46875 177.601562 46.46875 175.210938 C 46.46875 172.820312 48.40625 170.882812 50.800781 170.882812 Z M 55.800781 154.21875 C 58.015625 154.21875 59.808594 156.011719 59.808594 158.226562 C 59.808594 160.4375 58.015625 162.230469 55.800781 162.230469 C 53.589844 162.230469 51.796875 160.4375 51.796875 158.226562 C 51.796875 156.011719 53.589844 154.21875 55.800781 154.21875 Z M 79.519531 157.039062 L 87.421875 168.632812 L 87.738281 168.625 C 91.71875 168.625 94.941406 171.851562 94.941406 175.828125 C 94.941406 179.808594 91.71875 183.035156 87.738281 183.035156 C 85.867188 183.035156 84.101562 182.308594 82.777344 181.054688 L 78.453125 182.621094 C 78 184.15625 76.945312 185.429688 75.570312 186.171875 C 76.707031 186.550781 77.699219 187.273438 78.40625 188.246094 L 83.824219 188.222656 C 84.863281 186.863281 86.496094 186.027344 88.269531 186.027344 C 91.359375 186.027344 93.867188 188.53125 93.867188 191.625 C 93.867188 194.714844 91.359375 197.21875 88.269531 197.21875 C 86.507812 197.21875 84.882812 196.394531 83.839844 195.046875 L 78.355469 195.070312 C 77.488281 196.222656 76.210938 197.019531 74.777344 197.277344 L 72.730469 201.664062 C 72.960938 202.265625 73.078125 202.910156 73.078125 203.5625 C 73.078125 205.25 72.289062 206.757812 71.0625 207.730469 C 74.605469 208.738281 77.789062 210.8125 80.152344 213.714844 L 91.828125 213.714844 L 96.058594 205.367188 C 101.886719 203.90625 105.996094 204.117188 103.882812 197.03125 C 105.761719 195.234375 106.921875 194.578125 104.804688 193.007812 C 105.683594 192.554688 105.964844 192.113281 106.089844 191.507812 L 104.558594 188.609375 C 107.621094 186.855469 109.023438 185.105469 107.941406 183.855469 L 100.960938 175.839844 C 99.777344 161.226562 90.207031 154.601562 79.949219 154.039062 C 79.960938 154.203125 79.964844 154.367188 79.964844 154.53125 C 79.964844 155.394531 79.8125 156.238281 79.519531 157.039062 Z M 77.882812 154.007812 C 77.621094 151.414062 75.425781 149.386719 72.761719 149.386719 C 69.917969 149.386719 67.613281 151.691406 67.613281 154.53125 C 67.613281 155.089844 67.703125 155.625 67.867188 156.125 C 68.535156 158.1875 70.476562 159.679688 72.761719 159.679688 C 73.625 159.679688 74.433594 159.46875 75.148438 159.097656 L 84.085938 172.203125 C 83.164062 173.136719 82.59375 174.414062 82.59375 175.828125 L 82.597656 176.046875 L 75.800781 178.511719 C 75.085938 177.609375 73.984375 177.027344 72.742188 177.027344 C 70.589844 177.027344 68.84375 178.777344 68.84375 180.929688 C 68.84375 183.082031 70.589844 184.828125 72.742188 184.828125 C 74.84375 184.828125 76.554688 183.167969 76.640625 181.09375 L 83.421875 178.632812 C 84.339844 180.042969 85.929688 180.976562 87.738281 180.976562 C 90.582031 180.976562 92.886719 178.667969 92.886719 175.828125 C 92.886719 172.984375 90.582031 170.679688 87.738281 170.679688 C 87.289062 170.679688 86.855469 170.738281 86.441406 170.84375 L 77.152344 157.21875 C 77.632812 156.4375 77.910156 155.515625 77.910156 154.53125 C 77.910156 154.355469 77.898438 154.179688 77.882812 154.007812 Z M 65.933594 200.867188 C 65.074219 201.453125 64.507812 202.441406 64.507812 203.5625 C 64.507812 205.25 65.792969 206.640625 67.4375 206.804688 C 67.546875 206.816406 67.65625 206.820312 67.765625 206.820312 C 69.566406 206.820312 71.023438 205.363281 71.023438 203.5625 C 71.023438 202.871094 70.808594 202.230469 70.441406 201.703125 L 73.433594 195.296875 L 73.761719 195.308594 C 75.304688 195.308594 76.625 194.363281 77.175781 193.015625 L 85 192.980469 C 85.535156 194.261719 86.796875 195.160156 88.269531 195.160156 C 90.226562 195.160156 91.808594 193.578125 91.808594 191.621094 C 91.808594 189.667969 90.226562 188.082031 88.269531 188.082031 C 86.792969 188.082031 85.527344 188.988281 84.996094 190.273438 L 77.207031 190.304688 C 76.675781 188.921875 75.332031 187.9375 73.761719 187.9375 C 72.546875 187.9375 71.464844 188.527344 70.792969 189.4375 L 64.34375 185.902344 C 64.410156 185.597656 64.445312 185.28125 64.445312 184.953125 C 64.445312 183.570312 63.820312 182.328125 62.832031 181.507812 L 65.53125 174.835938 C 65.8125 174.871094 66.097656 174.890625 66.386719 174.890625 C 70.070312 174.890625 73.054688 171.90625 73.054688 168.222656 C 73.054688 164.539062 70.070312 161.554688 66.386719 161.554688 C 62.703125 161.554688 59.71875 164.539062 59.71875 168.222656 C 59.71875 170.652344 61.019531 172.78125 62.964844 173.945312 L 60.324219 180.476562 L 59.953125 180.460938 C 57.46875 180.460938 55.457031 182.472656 55.457031 184.953125 C 55.457031 187.4375 57.46875 189.449219 59.953125 189.449219 C 61.128906 189.449219 62.199219 188.996094 63 188.257812 L 70.113281 192.152344 C 70.21875 192.886719 70.539062 193.550781 71.011719 194.078125 L 68.097656 200.320312 L 67.765625 200.304688 C 67.085938 200.304688 66.453125 200.511719 65.933594 200.867188 Z M 72.742188 174.972656 C 74.039062 174.972656 75.277344 175.390625 76.292969 176.144531 L 80.644531 174.566406 C 80.796875 173.707031 81.105469 172.886719 81.550781 172.140625 L 74.339844 161.5625 C 73.824219 161.679688 73.296875 161.738281 72.761719 161.738281 L 72.199219 161.71875 C 73.984375 163.316406 75.109375 165.636719 75.109375 168.222656 C 75.109375 170.984375 73.828125 173.445312 71.824219 175.046875 C 72.125 174.996094 72.429688 174.972656 72.742188 174.972656 Z M 65.867188 209.648438 C 67.933594 209.648438 69.609375 211.324219 69.609375 213.394531 C 69.609375 215.460938 67.933594 217.136719 65.867188 217.136719 C 63.800781 217.136719 62.121094 215.460938 62.121094 213.394531 C 62.121094 211.324219 63.796875 209.648438 65.867188 209.648438 Z M 54.222656 203.976562 C 56.289062 203.976562 57.964844 205.652344 57.964844 207.71875 C 57.964844 209.789062 56.289062 211.464844 54.222656 211.464844 C 52.152344 211.464844 50.476562 209.789062 50.476562 207.71875 C 50.476562 205.652344 52.152344 203.976562 54.222656 203.976562 Z M 48.4375 190.988281 C 50.183594 190.988281 51.59375 192.402344 51.59375 194.148438 C 51.59375 195.890625 50.183594 197.304688 48.4375 197.304688 C 46.691406 197.304688 45.28125 195.890625 45.28125 194.148438 C 45.28125 192.402344 46.695312 190.988281 48.4375 190.988281 Z M 48.4375 190.988281 " fill-opacity="1" fill-rule="evenodd"/></g><g fill="#ffffff" fill-opacity="1"><g transform="translate(113.212519, 198.443946)"><g><path d="M 1.671875 -1.640625 L 2.3125 -6.96875 C 3.28125 -6.28125 4.242188 -5.785156 5.203125 -5.484375 C 6.160156 -5.191406 7.03125 -5.019531 7.8125 -4.96875 C 8.59375 -4.925781 9.171875 -4.914062 9.546875 -4.9375 C 10.304688 -4.976562 10.953125 -5.242188 11.484375 -5.734375 C 12.015625 -6.222656 12.25 -6.8125 12.1875 -7.5 C 12.132812 -8.226562 11.859375 -8.78125 11.359375 -9.15625 C 10.867188 -9.539062 10.265625 -9.851562 9.546875 -10.09375 C 8.222656 -10.582031 6.988281 -11.148438 5.84375 -11.796875 C 4.695312 -12.453125 3.773438 -13.265625 3.078125 -14.234375 C 2.378906 -15.210938 2.03125 -16.410156 2.03125 -17.828125 C 2.03125 -19.242188 2.328125 -20.523438 2.921875 -21.671875 C 3.523438 -22.828125 4.375 -23.75 5.46875 -24.4375 C 6.5625 -25.125 7.804688 -25.503906 9.203125 -25.578125 C 9.859375 -25.617188 10.664062 -25.59375 11.625 -25.5 C 12.582031 -25.40625 13.878906 -25.070312 15.515625 -24.5 L 14.875 -19.609375 C 13.476562 -20.171875 12.363281 -20.492188 11.53125 -20.578125 C 10.707031 -20.660156 10.097656 -20.691406 9.703125 -20.671875 C 8.796875 -20.617188 8.132812 -20.304688 7.71875 -19.734375 C 7.3125 -19.171875 7.128906 -18.535156 7.171875 -17.828125 C 7.242188 -17.117188 7.550781 -16.578125 8.09375 -16.203125 C 8.644531 -15.835938 9.285156 -15.523438 10.015625 -15.265625 C 11.335938 -14.796875 12.554688 -14.210938 13.671875 -13.515625 C 14.785156 -12.816406 15.675781 -11.972656 16.34375 -10.984375 C 17.019531 -10.003906 17.359375 -8.84375 17.359375 -7.5 C 17.359375 -6.09375 17.050781 -4.820312 16.4375 -3.6875 C 15.820312 -2.550781 14.941406 -1.640625 13.796875 -0.953125 C 12.648438 -0.265625 11.285156 0.125 9.703125 0.21875 C 9.222656 0.238281 8.570312 0.21875 7.75 0.15625 C 6.9375 0.101562 6.007812 -0.0546875 4.96875 -0.328125 C 3.925781 -0.609375 2.828125 -1.046875 1.671875 -1.640625 Z M 1.671875 -1.640625 "/></g></g></g><g fill="#ffffff" fill-opacity="1"><g transform="translate(130.043843, 198.443946)"><g><path d="M 2.84375 0 L 2.84375 -25.390625 L 7.921875 -25.390625 L 7.921875 -15.265625 L 14.3125 -25.390625 L 20.25 -25.390625 L 12 -12.859375 L 20.953125 0 L 14.671875 0 L 7.921875 -9.9375 L 7.921875 0 Z M 2.84375 0 "/></g></g></g><g fill="#ffffff" fill-opacity="1"><g transform="translate(149.538433, 198.443946)"><g><path d="M 7.921875 0 L 2.84375 0 L 2.84375 -25.390625 L 7.921875 -25.390625 Z M 7.921875 0 "/></g></g></g><g fill="#ffffff" fill-opacity="1"><g transform="translate(158.379963, 198.443946)"><g><path d="M 2.84375 -25.390625 L 7.921875 -25.390625 L 7.921875 -5.078125 L 15.984375 -5.078125 L 15.984375 0 L 2.84375 0 Z M 2.84375 -25.390625 "/></g></g></g><g fill="#ffffff" fill-opacity="1"><g transform="translate(173.93292, 198.443946)"><g><path d="M 2.84375 -25.390625 L 7.921875 -25.390625 L 7.921875 -5.078125 L 15.984375 -5.078125 L 15.984375 0 L 2.84375 0 Z M 2.84375 -25.390625 "/></g></g></g><g fill="#ffffff" fill-opacity="1"><g transform="translate(189.485877, 198.443946)"><g/></g></g><g fill="#00c2d1" fill-opacity="1"><g transform="translate(197.627892, 198.443946)"><g><path d="M 21.0625 -8.84375 C 21.0625 -7.113281 20.726562 -5.632812 20.0625 -4.40625 C 19.40625 -3.175781 18.53125 -2.191406 17.4375 -1.453125 C 16.34375 -0.722656 15.144531 -0.234375 13.84375 0.015625 C 12.539062 0.265625 11.234375 0.265625 9.921875 0.015625 C 8.609375 -0.234375 7.40625 -0.722656 6.3125 -1.453125 C 5.226562 -2.191406 4.351562 -3.175781 3.6875 -4.40625 C 3.03125 -5.632812 2.703125 -7.113281 2.703125 -8.84375 L 2.703125 -25.390625 L 7.78125 -25.390625 L 7.78125 -8.875 C 7.78125 -7.8125 8.054688 -6.957031 8.609375 -6.3125 C 9.171875 -5.675781 9.859375 -5.25 10.671875 -5.03125 C 11.484375 -4.820312 12.296875 -4.820312 13.109375 -5.03125 C 13.929688 -5.25 14.617188 -5.675781 15.171875 -6.3125 C 15.734375 -6.957031 16.015625 -7.8125 16.015625 -8.875 L 16.015625 -25.390625 L 21.0625 -25.390625 Z M 21.0625 -8.84375 "/></g></g></g><g fill="#00c2d1" fill-opacity="1"><g transform="translate(219.501668, 198.443946)"><g><path d="M 7.921875 0 L 2.84375 0 L 2.84375 -25.359375 L 12.828125 -25.359375 C 14.242188 -25.359375 15.453125 -25.070312 16.453125 -24.5 C 17.460938 -23.9375 18.265625 -23.191406 18.859375 -22.265625 C 19.453125 -21.347656 19.847656 -20.328125 20.046875 -19.203125 C 20.242188 -18.078125 20.242188 -16.957031 20.046875 -15.84375 C 19.847656 -14.726562 19.445312 -13.707031 18.84375 -12.78125 C 18.238281 -11.863281 17.429688 -11.117188 16.421875 -10.546875 C 15.421875 -9.984375 14.222656 -9.703125 12.828125 -9.703125 L 7.921875 -9.703125 Z M 7.921875 -14.625 L 12.390625 -14.625 C 13.078125 -14.625 13.617188 -14.8125 14.015625 -15.1875 C 14.421875 -15.570312 14.695312 -16.046875 14.84375 -16.609375 C 14.988281 -17.179688 14.988281 -17.75 14.84375 -18.3125 C 14.695312 -18.882812 14.421875 -19.359375 14.015625 -19.734375 C 13.617188 -20.117188 13.078125 -20.3125 12.390625 -20.3125 L 7.921875 -20.3125 Z M 7.921875 -14.625 "/></g></g></g><g fill="#ffffff" fill-opacity="1"><g transform="translate(238.968424, 198.443946)"><g/></g></g><g fill="#ffffff" fill-opacity="1"><g transform="translate(247.099744, 198.443946)"><g><path d="M 9.0625 0 L 9.0625 -11.4375 L 0.21875 -25.390625 L 6.390625 -25.390625 L 11.578125 -16.65625 L 16.765625 -25.390625 L 22.984375 -25.390625 L 14.09375 -11.4375 L 14.09375 0 Z M 9.0625 0 "/></g></g></g><g fill="#ffffff" fill-opacity="1"><g transform="translate(268.192296, 198.443946)"><g><path d="M 15.0625 0.359375 C 12.882812 0.359375 10.972656 -0.00390625 9.328125 -0.734375 C 7.679688 -1.472656 6.3125 -2.460938 5.21875 -3.703125 C 4.132812 -4.953125 3.316406 -6.359375 2.765625 -7.921875 C 2.222656 -9.484375 1.953125 -11.085938 1.953125 -12.734375 C 1.953125 -14.378906 2.222656 -15.984375 2.765625 -17.546875 C 3.316406 -19.109375 4.132812 -20.507812 5.21875 -21.75 C 6.3125 -23 7.679688 -23.988281 9.328125 -24.71875 C 10.972656 -25.445312 12.882812 -25.8125 15.0625 -25.8125 C 17.238281 -25.8125 19.148438 -25.445312 20.796875 -24.71875 C 22.441406 -23.988281 23.804688 -23 24.890625 -21.75 C 25.984375 -20.507812 26.800781 -19.109375 27.34375 -17.546875 C 27.882812 -15.984375 28.15625 -14.378906 28.15625 -12.734375 C 28.15625 -11.085938 27.882812 -9.484375 27.34375 -7.921875 C 26.800781 -6.359375 25.984375 -4.953125 24.890625 -3.703125 C 23.804688 -2.460938 22.441406 -1.472656 20.796875 -0.734375 C 19.148438 -0.00390625 17.238281 0.359375 15.0625 0.359375 Z M 15.0625 -4.90625 C 16.5 -4.90625 17.738281 -5.1875 18.78125 -5.75 C 19.820312 -6.320312 20.648438 -7.070312 21.265625 -8 C 21.890625 -8.9375 22.304688 -9.960938 22.515625 -11.078125 C 22.734375 -12.191406 22.734375 -13.304688 22.515625 -14.421875 C 22.304688 -15.535156 21.890625 -16.554688 21.265625 -17.484375 C 20.648438 -18.421875 19.820312 -19.171875 18.78125 -19.734375 C 17.738281 -20.304688 16.5 -20.59375 15.0625 -20.59375 C 13.613281 -20.59375 12.367188 -20.304688 11.328125 -19.734375 C 10.285156 -19.171875 9.457031 -18.421875 8.84375 -17.484375 C 8.226562 -16.554688 7.8125 -15.535156 7.59375 -14.421875 C 7.382812 -13.304688 7.382812 -12.191406 7.59375 -11.078125 C 7.8125 -9.960938 8.226562 -8.9375 8.84375 -8 C 9.457031 -7.070312 10.285156 -6.320312 11.328125 -5.75 C 12.367188 -5.1875 13.613281 -4.90625 15.0625 -4.90625 Z M 15.0625 -4.90625 "/></g></g></g><g fill="#ffffff" fill-opacity="1"><g transform="translate(296.315866, 198.443946)"><g><path d="M 21.0625 -8.84375 C 21.0625 -7.113281 20.726562 -5.632812 20.0625 -4.40625 C 19.40625 -3.175781 18.53125 -2.191406 17.4375 -1.453125 C 16.34375 -0.722656 15.144531 -0.234375 13.84375 0.015625 C 12.539062 0.265625 11.234375 0.265625 9.921875 0.015625 C 8.609375 -0.234375 7.40625 -0.722656 6.3125 -1.453125 C 5.226562 -2.191406 4.351562 -3.175781 3.6875 -4.40625 C 3.03125 -5.632812 2.703125 -7.113281 2.703125 -8.84375 L 2.703125 -25.390625 L 7.78125 -25.390625 L 7.78125 -8.875 C 7.78125 -7.8125 8.054688 -6.957031 8.609375 -6.3125 C 9.171875 -5.675781 9.859375 -5.25 10.671875 -5.03125 C 11.484375 -4.820312 12.296875 -4.820312 13.109375 -5.03125 C 13.929688 -5.25 14.617188 -5.675781 15.171875 -6.3125 C 15.734375 -6.957031 16.015625 -7.8125 16.015625 -8.875 L 16.015625 -25.390625 L 21.0625 -25.390625 Z M 21.0625 -8.84375 "/></g></g></g><g fill="#ffffff" fill-opacity="1"><g transform="translate(318.189642, 198.443946)"><g><path d="M 12.109375 0 L 7.03125 0 L 7.03125 -20.3125 L 0.703125 -20.3125 L 0.703125 -25.359375 L 18.4375 -25.359375 L 18.4375 -20.3125 L 12.109375 -20.3125 Z M 12.109375 0 "/></g></g></g><g fill="#ffffff" fill-opacity="1"><g transform="translate(335.660148, 198.443946)"><g><path d="M 20.59375 0 L 15.515625 0 L 15.515625 -10.15625 L 7.921875 -10.15625 L 7.921875 0 L 2.84375 0 L 2.84375 -25.390625 L 7.921875 -25.390625 L 7.921875 -15.234375 L 15.515625 -15.234375 L 15.515625 -25.390625 L 20.59375 -25.390625 Z M 20.59375 0 "/></g></g></g><g fill="#285f74" fill-opacity="1"><g transform="translate(113.999719, 213.78489)"><g><path d="M 1.234375 0 L 1.234375 -8.953125 L 3.890625 -8.953125 C 4.335938 -8.953125 4.75 -8.910156 5.125 -8.828125 C 5.507812 -8.742188 5.832031 -8.613281 6.09375 -8.4375 C 6.363281 -8.269531 6.570312 -8.046875 6.71875 -7.765625 C 6.875 -7.492188 6.953125 -7.160156 6.953125 -6.765625 C 6.953125 -6.316406 6.835938 -5.910156 6.609375 -5.546875 C 6.390625 -5.191406 6.066406 -4.945312 5.640625 -4.8125 L 5.640625 -4.765625 C 6.191406 -4.660156 6.632812 -4.429688 6.96875 -4.078125 C 7.300781 -3.722656 7.46875 -3.238281 7.46875 -2.625 C 7.46875 -2.1875 7.382812 -1.800781 7.21875 -1.46875 C 7.0625 -1.144531 6.832031 -0.875 6.53125 -0.65625 C 6.226562 -0.4375 5.867188 -0.269531 5.453125 -0.15625 C 5.035156 -0.0507812 4.578125 0 4.078125 0 Z M 2.359375 -5.140625 L 3.6875 -5.140625 C 4.445312 -5.140625 4.992188 -5.269531 5.328125 -5.53125 C 5.671875 -5.800781 5.84375 -6.160156 5.84375 -6.609375 C 5.84375 -7.128906 5.664062 -7.5 5.3125 -7.71875 C 4.957031 -7.9375 4.429688 -8.046875 3.734375 -8.046875 L 2.359375 -8.046875 Z M 2.359375 -0.90625 L 3.921875 -0.90625 C 4.691406 -0.90625 5.289062 -1.046875 5.71875 -1.328125 C 6.144531 -1.617188 6.359375 -2.0625 6.359375 -2.65625 C 6.359375 -3.207031 6.148438 -3.613281 5.734375 -3.875 C 5.316406 -4.132812 4.710938 -4.265625 3.921875 -4.265625 L 2.359375 -4.265625 Z M 2.359375 -0.90625 "/></g></g></g><g fill="#285f74" fill-opacity="1"><g transform="translate(122.020445, 213.78489)"><g><path d="M 2.671875 0 L 2.671875 -3.46875 L -0.015625 -8.953125 L 1.203125 -8.953125 L 2.359375 -6.421875 C 2.503906 -6.097656 2.644531 -5.773438 2.78125 -5.453125 C 2.914062 -5.140625 3.0625 -4.8125 3.21875 -4.46875 L 3.28125 -4.46875 C 3.425781 -4.8125 3.578125 -5.140625 3.734375 -5.453125 C 3.890625 -5.773438 4.035156 -6.097656 4.171875 -6.421875 L 5.3125 -8.953125 L 6.5 -8.953125 L 3.8125 -3.46875 L 3.8125 0 Z M 2.671875 0 "/></g></g></g><g fill="#285f74" fill-opacity="1"><g transform="translate(128.513416, 213.78489)"><g/></g></g><g fill="#285f74" fill-opacity="1"><g transform="translate(131.241556, 213.78489)"><g><path d="M 2.765625 -5 L 2.34375 -3.640625 L 5.03125 -3.640625 L 4.609375 -5 C 4.441406 -5.5 4.285156 -6 4.140625 -6.5 C 3.992188 -7 3.847656 -7.503906 3.703125 -8.015625 L 3.65625 -8.015625 C 3.519531 -7.503906 3.378906 -7 3.234375 -6.5 C 3.085938 -6 2.929688 -5.5 2.765625 -5 Z M 0.046875 0 L 3.0625 -8.953125 L 4.34375 -8.953125 L 7.375 0 L 6.171875 0 L 5.3125 -2.734375 L 2.0625 -2.734375 L 1.203125 0 Z M 0.046875 0 "/></g></g></g><g fill="#285f74" fill-opacity="1"><g transform="translate(138.662102, 213.78489)"><g><path d="M 1.234375 0 L 1.234375 -8.953125 L 4.03125 -8.953125 C 4.476562 -8.953125 4.894531 -8.90625 5.28125 -8.8125 C 5.664062 -8.726562 6 -8.585938 6.28125 -8.390625 C 6.5625 -8.191406 6.773438 -7.929688 6.921875 -7.609375 C 7.078125 -7.296875 7.15625 -6.90625 7.15625 -6.4375 C 7.15625 -5.738281 6.972656 -5.179688 6.609375 -4.765625 C 6.242188 -4.347656 5.753906 -4.0625 5.140625 -3.90625 L 7.421875 0 L 6.140625 0 L 3.984375 -3.78125 L 2.359375 -3.78125 L 2.359375 0 Z M 2.359375 -4.703125 L 3.859375 -4.703125 C 4.554688 -4.703125 5.09375 -4.84375 5.46875 -5.125 C 5.84375 -5.414062 6.03125 -5.851562 6.03125 -6.4375 C 6.03125 -7.03125 5.84375 -7.441406 5.46875 -7.671875 C 5.09375 -7.910156 4.554688 -8.03125 3.859375 -8.03125 L 2.359375 -8.03125 Z M 2.359375 -4.703125 "/></g></g></g><g fill="#285f74" fill-opacity="1"><g transform="translate(146.423661, 213.78489)"><g><path d="M 2.765625 -5 L 2.34375 -3.640625 L 5.03125 -3.640625 L 4.609375 -5 C 4.441406 -5.5 4.285156 -6 4.140625 -6.5 C 3.992188 -7 3.847656 -7.503906 3.703125 -8.015625 L 3.65625 -8.015625 C 3.519531 -7.503906 3.378906 -7 3.234375 -6.5 C 3.085938 -6 2.929688 -5.5 2.765625 -5 Z M 0.046875 0 L 3.0625 -8.953125 L 4.34375 -8.953125 L 7.375 0 L 6.171875 0 L 5.3125 -2.734375 L 2.0625 -2.734375 L 1.203125 0 Z M 0.046875 0 "/></g></g></g><g fill="#285f74" fill-opacity="1"><g transform="translate(153.844206, 213.78489)"><g><path d="M 1.234375 0 L 1.234375 -8.953125 L 3.46875 -8.953125 C 4.84375 -8.953125 5.890625 -8.566406 6.609375 -7.796875 C 7.328125 -7.035156 7.6875 -5.941406 7.6875 -4.515625 C 7.6875 -3.804688 7.59375 -3.171875 7.40625 -2.609375 C 7.226562 -2.046875 6.960938 -1.570312 6.609375 -1.1875 C 6.253906 -0.800781 5.816406 -0.503906 5.296875 -0.296875 C 4.785156 -0.0976562 4.191406 0 3.515625 0 Z M 2.359375 -0.921875 L 3.390625 -0.921875 C 4.429688 -0.921875 5.210938 -1.234375 5.734375 -1.859375 C 6.253906 -2.492188 6.515625 -3.378906 6.515625 -4.515625 C 6.515625 -5.648438 6.253906 -6.515625 5.734375 -7.109375 C 5.210938 -7.710938 4.429688 -8.015625 3.390625 -8.015625 L 2.359375 -8.015625 Z M 2.359375 -0.921875 "/></g></g></g><g fill="#285f74" fill-opacity="1"><g transform="translate(162.233238, 213.78489)"><g><path d="M 1.234375 0 L 1.234375 -8.953125 L 2.359375 -8.953125 L 2.359375 -5.203125 L 6.515625 -5.203125 L 6.515625 -8.953125 L 7.671875 -8.953125 L 7.671875 0 L 6.515625 0 L 6.515625 -4.21875 L 2.359375 -4.21875 L 2.359375 0 Z M 1.234375 0 "/></g></g></g><g fill="#285f74" fill-opacity="1"><g transform="translate(171.126968, 213.78489)"><g><path d="M 2.671875 0 L 2.671875 -3.46875 L -0.015625 -8.953125 L 1.203125 -8.953125 L 2.359375 -6.421875 C 2.503906 -6.097656 2.644531 -5.773438 2.78125 -5.453125 C 2.914062 -5.140625 3.0625 -4.8125 3.21875 -4.46875 L 3.28125 -4.46875 C 3.425781 -4.8125 3.578125 -5.140625 3.734375 -5.453125 C 3.890625 -5.773438 4.035156 -6.097656 4.171875 -6.421875 L 5.3125 -8.953125 L 6.5 -8.953125 L 3.8125 -3.46875 L 3.8125 0 Z M 2.671875 0 "/></g></g></g><g fill="#285f74" fill-opacity="1"><g transform="translate(177.619939, 213.78489)"><g><path d="M 2.765625 -5 L 2.34375 -3.640625 L 5.03125 -3.640625 L 4.609375 -5 C 4.441406 -5.5 4.285156 -6 4.140625 -6.5 C 3.992188 -7 3.847656 -7.503906 3.703125 -8.015625 L 3.65625 -8.015625 C 3.519531 -7.503906 3.378906 -7 3.234375 -6.5 C 3.085938 -6 2.929688 -5.5 2.765625 -5 Z M 0.046875 0 L 3.0625 -8.953125 L 4.34375 -8.953125 L 7.375 0 L 6.171875 0 L 5.3125 -2.734375 L 2.0625 -2.734375 L 1.203125 0 Z M 0.046875 0 "/></g></g></g><g fill="#285f74" fill-opacity="1"><g transform="translate(185.040484, 213.78489)"><g/></g></g><g fill="#285f74" fill-opacity="1"><g transform="translate(187.768625, 213.78489)"><g><path d="M 3.078125 0 L 3.078125 -8 L 0.375 -8 L 0.375 -8.953125 L 6.921875 -8.953125 L 6.921875 -8 L 4.234375 -8 L 4.234375 0 Z M 3.078125 0 "/></g></g></g><g fill="#285f74" fill-opacity="1"><g transform="translate(195.080043, 213.78489)"><g><path d="M 1.234375 0 L 1.234375 -8.953125 L 6.390625 -8.953125 L 6.390625 -8 L 2.359375 -8 L 2.359375 -5.1875 L 5.75 -5.1875 L 5.75 -4.21875 L 2.359375 -4.21875 L 2.359375 -0.96875 L 6.515625 -0.96875 L 6.515625 0 Z M 1.234375 0 "/></g></g></g><g fill="#285f74" fill-opacity="1"><g transform="translate(202.268689, 213.78489)"><g><path d="M 4.609375 0.15625 C 4.046875 0.15625 3.523438 0.0507812 3.046875 -0.15625 C 2.578125 -0.363281 2.164062 -0.664062 1.8125 -1.0625 C 1.46875 -1.457031 1.195312 -1.941406 1 -2.515625 C 0.800781 -3.097656 0.703125 -3.75 0.703125 -4.46875 C 0.703125 -5.1875 0.800781 -5.832031 1 -6.40625 C 1.207031 -6.976562 1.488281 -7.460938 1.84375 -7.859375 C 2.195312 -8.265625 2.613281 -8.570312 3.09375 -8.78125 C 3.570312 -9 4.097656 -9.109375 4.671875 -9.109375 C 5.222656 -9.109375 5.703125 -8.992188 6.109375 -8.765625 C 6.523438 -8.546875 6.867188 -8.289062 7.140625 -8 L 6.515625 -7.265625 C 6.285156 -7.523438 6.019531 -7.726562 5.71875 -7.875 C 5.414062 -8.03125 5.070312 -8.109375 4.6875 -8.109375 C 4.257812 -8.109375 3.875 -8.023438 3.53125 -7.859375 C 3.1875 -7.691406 2.890625 -7.453125 2.640625 -7.140625 C 2.398438 -6.828125 2.210938 -6.445312 2.078125 -6 C 1.941406 -5.550781 1.875 -5.050781 1.875 -4.5 C 1.875 -3.9375 1.941406 -3.429688 2.078125 -2.984375 C 2.210938 -2.535156 2.394531 -2.148438 2.625 -1.828125 C 2.863281 -1.503906 3.15625 -1.253906 3.5 -1.078125 C 3.84375 -0.910156 4.226562 -0.828125 4.65625 -0.828125 C 5.09375 -0.828125 5.472656 -0.914062 5.796875 -1.09375 C 6.117188 -1.269531 6.425781 -1.519531 6.71875 -1.84375 L 7.359375 -1.125 C 7.003906 -0.71875 6.601562 -0.398438 6.15625 -0.171875 C 5.707031 0.046875 5.191406 0.15625 4.609375 0.15625 Z M 4.609375 0.15625 "/></g></g></g><g fill="#285f74" fill-opacity="1"><g transform="translate(210.057527, 213.78489)"><g><path d="M 1.234375 0 L 1.234375 -8.953125 L 2.359375 -8.953125 L 2.359375 -5.203125 L 6.515625 -5.203125 L 6.515625 -8.953125 L 7.671875 -8.953125 L 7.671875 0 L 6.515625 0 L 6.515625 -4.21875 L 2.359375 -4.21875 L 2.359375 0 Z M 1.234375 0 "/></g></g></g><g fill="#285f74" fill-opacity="1"><g transform="translate(218.951258, 213.78489)"><g><path d="M 1.234375 0 L 1.234375 -8.953125 L 2.40625 -8.953125 L 5.640625 -3.328125 L 6.609375 -1.46875 L 6.65625 -1.46875 C 6.625 -1.925781 6.59375 -2.394531 6.5625 -2.875 C 6.53125 -3.363281 6.515625 -3.847656 6.515625 -4.328125 L 6.515625 -8.953125 L 7.59375 -8.953125 L 7.59375 0 L 6.421875 0 L 3.171875 -5.640625 L 2.203125 -7.46875 L 2.15625 -7.46875 C 2.1875 -7.019531 2.21875 -6.5625 2.25 -6.09375 C 2.289062 -5.625 2.3125 -5.148438 2.3125 -4.671875 L 2.3125 0 Z M 1.234375 0 "/></g></g></g><g fill="#285f74" fill-opacity="1"><g transform="translate(227.776786, 213.78489)"><g><path d="M 4.53125 0.15625 C 3.96875 0.15625 3.453125 0.0507812 2.984375 -0.15625 C 2.515625 -0.375 2.109375 -0.6875 1.765625 -1.09375 C 1.429688 -1.5 1.171875 -1.988281 0.984375 -2.5625 C 0.796875 -3.144531 0.703125 -3.796875 0.703125 -4.515625 C 0.703125 -5.234375 0.796875 -5.875 0.984375 -6.4375 C 1.171875 -7.007812 1.429688 -7.492188 1.765625 -7.890625 C 2.109375 -8.285156 2.515625 -8.585938 2.984375 -8.796875 C 3.453125 -9.003906 3.96875 -9.109375 4.53125 -9.109375 C 5.09375 -9.109375 5.609375 -9 6.078125 -8.78125 C 6.546875 -8.570312 6.945312 -8.269531 7.28125 -7.875 C 7.625 -7.476562 7.890625 -6.992188 8.078125 -6.421875 C 8.265625 -5.859375 8.359375 -5.222656 8.359375 -4.515625 C 8.359375 -3.796875 8.265625 -3.144531 8.078125 -2.5625 C 7.890625 -1.988281 7.625 -1.5 7.28125 -1.09375 C 6.945312 -0.6875 6.546875 -0.375 6.078125 -0.15625 C 5.609375 0.0507812 5.09375 0.15625 4.53125 0.15625 Z M 4.53125 -0.828125 C 4.925781 -0.828125 5.285156 -0.910156 5.609375 -1.078125 C 5.929688 -1.253906 6.207031 -1.503906 6.4375 -1.828125 C 6.675781 -2.148438 6.859375 -2.535156 6.984375 -2.984375 C 7.109375 -3.441406 7.171875 -3.953125 7.171875 -4.515625 C 7.171875 -5.066406 7.109375 -5.566406 6.984375 -6.015625 C 6.859375 -6.460938 6.675781 -6.835938 6.4375 -7.140625 C 6.207031 -7.453125 5.929688 -7.691406 5.609375 -7.859375 C 5.285156 -8.023438 4.925781 -8.109375 4.53125 -8.109375 C 4.125 -8.109375 3.757812 -8.023438 3.4375 -7.859375 C 3.113281 -7.691406 2.835938 -7.453125 2.609375 -7.140625 C 2.378906 -6.835938 2.195312 -6.460938 2.0625 -6.015625 C 1.9375 -5.566406 1.875 -5.066406 1.875 -4.515625 C 1.875 -3.953125 1.9375 -3.441406 2.0625 -2.984375 C 2.195312 -2.535156 2.378906 -2.148438 2.609375 -1.828125 C 2.835938 -1.503906 3.113281 -1.253906 3.4375 -1.078125 C 3.757812 -0.910156 4.125 -0.828125 4.53125 -0.828125 Z M 4.53125 -0.828125 "/></g></g></g><g fill="#285f74" fill-opacity="1"><g transform="translate(236.834213, 213.78489)"><g><path d="M 1.234375 0 L 1.234375 -8.953125 L 2.359375 -8.953125 L 2.359375 -0.96875 L 6.28125 -0.96875 L 6.28125 0 Z M 1.234375 0 "/></g></g></g><g fill="#285f74" fill-opacity="1"><g transform="translate(243.46359, 213.78489)"><g><path d="M 4.53125 0.15625 C 3.96875 0.15625 3.453125 0.0507812 2.984375 -0.15625 C 2.515625 -0.375 2.109375 -0.6875 1.765625 -1.09375 C 1.429688 -1.5 1.171875 -1.988281 0.984375 -2.5625 C 0.796875 -3.144531 0.703125 -3.796875 0.703125 -4.515625 C 0.703125 -5.234375 0.796875 -5.875 0.984375 -6.4375 C 1.171875 -7.007812 1.429688 -7.492188 1.765625 -7.890625 C 2.109375 -8.285156 2.515625 -8.585938 2.984375 -8.796875 C 3.453125 -9.003906 3.96875 -9.109375 4.53125 -9.109375 C 5.09375 -9.109375 5.609375 -9 6.078125 -8.78125 C 6.546875 -8.570312 6.945312 -8.269531 7.28125 -7.875 C 7.625 -7.476562 7.890625 -6.992188 8.078125 -6.421875 C 8.265625 -5.859375 8.359375 -5.222656 8.359375 -4.515625 C 8.359375 -3.796875 8.265625 -3.144531 8.078125 -2.5625 C 7.890625 -1.988281 7.625 -1.5 7.28125 -1.09375 C 6.945312 -0.6875 6.546875 -0.375 6.078125 -0.15625 C 5.609375 0.0507812 5.09375 0.15625 4.53125 0.15625 Z M 4.53125 -0.828125 C 4.925781 -0.828125 5.285156 -0.910156 5.609375 -1.078125 C 5.929688 -1.253906 6.207031 -1.503906 6.4375 -1.828125 C 6.675781 -2.148438 6.859375 -2.535156 6.984375 -2.984375 C 7.109375 -3.441406 7.171875 -3.953125 7.171875 -4.515625 C 7.171875 -5.066406 7.109375 -5.566406 6.984375 -6.015625 C 6.859375 -6.460938 6.675781 -6.835938 6.4375 -7.140625 C 6.207031 -7.453125 5.929688 -7.691406 5.609375 -7.859375 C 5.285156 -8.023438 4.925781 -8.109375 4.53125 -8.109375 C 4.125 -8.109375 3.757812 -8.023438 3.4375 -7.859375 C 3.113281 -7.691406 2.835938 -7.453125 2.609375 -7.140625 C 2.378906 -6.835938 2.195312 -6.460938 2.0625 -6.015625 C 1.9375 -5.566406 1.875 -5.066406 1.875 -4.515625 C 1.875 -3.953125 1.9375 -3.441406 2.0625 -2.984375 C 2.195312 -2.535156 2.378906 -2.148438 2.609375 -1.828125 C 2.835938 -1.503906 3.113281 -1.253906 3.4375 -1.078125 C 3.757812 -0.910156 4.125 -0.828125 4.53125 -0.828125 Z M 4.53125 -0.828125 "/></g></g></g><g fill="#285f74" fill-opacity="1"><g transform="translate(252.521017, 213.78489)"><g><path d="M 4.75 0.15625 C 4.15625 0.15625 3.609375 0.0507812 3.109375 -0.15625 C 2.617188 -0.363281 2.195312 -0.664062 1.84375 -1.0625 C 1.488281 -1.457031 1.207031 -1.941406 1 -2.515625 C 0.800781 -3.097656 0.703125 -3.75 0.703125 -4.46875 C 0.703125 -5.1875 0.804688 -5.832031 1.015625 -6.40625 C 1.222656 -6.976562 1.507812 -7.460938 1.875 -7.859375 C 2.238281 -8.265625 2.671875 -8.570312 3.171875 -8.78125 C 3.671875 -9 4.21875 -9.109375 4.8125 -9.109375 C 5.125 -9.109375 5.410156 -9.078125 5.671875 -9.015625 C 5.929688 -8.953125 6.164062 -8.867188 6.375 -8.765625 C 6.59375 -8.660156 6.785156 -8.539062 6.953125 -8.40625 C 7.117188 -8.28125 7.265625 -8.144531 7.390625 -8 L 6.765625 -7.265625 C 6.535156 -7.503906 6.269531 -7.703125 5.96875 -7.859375 C 5.675781 -8.023438 5.300781 -8.109375 4.84375 -8.109375 C 4.382812 -8.109375 3.972656 -8.023438 3.609375 -7.859375 C 3.242188 -7.691406 2.9375 -7.453125 2.6875 -7.140625 C 2.4375 -6.828125 2.238281 -6.445312 2.09375 -6 C 1.945312 -5.550781 1.875 -5.050781 1.875 -4.5 C 1.875 -3.9375 1.941406 -3.429688 2.078125 -2.984375 C 2.210938 -2.535156 2.40625 -2.148438 2.65625 -1.828125 C 2.90625 -1.503906 3.210938 -1.253906 3.578125 -1.078125 C 3.953125 -0.910156 4.378906 -0.828125 4.859375 -0.828125 C 5.171875 -0.828125 5.46875 -0.875 5.75 -0.96875 C 6.039062 -1.070312 6.28125 -1.203125 6.46875 -1.359375 L 6.46875 -3.703125 L 4.5625 -3.703125 L 4.5625 -4.640625 L 7.5 -4.640625 L 7.5 -0.875 C 7.207031 -0.570312 6.820312 -0.320312 6.34375 -0.125 C 5.875 0.0625 5.34375 0.15625 4.75 0.15625 Z M 4.75 0.15625 "/></g></g></g><g fill="#285f74" fill-opacity="1"><g transform="translate(260.937327, 213.78489)"><g><path d="M 1.234375 0 L 1.234375 -8.953125 L 2.359375 -8.953125 L 2.359375 0 Z M 1.234375 0 "/></g></g></g><g fill="#285f74" fill-opacity="1"><g transform="translate(264.524827, 213.78489)"><g><path d="M 1.234375 0 L 1.234375 -8.953125 L 6.390625 -8.953125 L 6.390625 -8 L 2.359375 -8 L 2.359375 -5.1875 L 5.75 -5.1875 L 5.75 -4.21875 L 2.359375 -4.21875 L 2.359375 -0.96875 L 6.515625 -0.96875 L 6.515625 0 Z M 1.234375 0 "/></g></g></g><g fill="#285f74" fill-opacity="1"><g transform="translate(271.713473, 213.78489)"><g><path d="M 3.703125 0.15625 C 3.078125 0.15625 2.492188 0.0390625 1.953125 -0.1875 C 1.421875 -0.425781 0.960938 -0.75 0.578125 -1.15625 L 1.25 -1.953125 C 1.570312 -1.617188 1.945312 -1.347656 2.375 -1.140625 C 2.8125 -0.929688 3.257812 -0.828125 3.71875 -0.828125 C 4.3125 -0.828125 4.769531 -0.960938 5.09375 -1.234375 C 5.425781 -1.503906 5.59375 -1.859375 5.59375 -2.296875 C 5.59375 -2.515625 5.550781 -2.703125 5.46875 -2.859375 C 5.394531 -3.023438 5.289062 -3.164062 5.15625 -3.28125 C 5.03125 -3.394531 4.875 -3.492188 4.6875 -3.578125 C 4.507812 -3.671875 4.316406 -3.769531 4.109375 -3.875 L 2.828125 -4.4375 C 2.617188 -4.519531 2.40625 -4.625 2.1875 -4.75 C 1.96875 -4.882812 1.769531 -5.039062 1.59375 -5.21875 C 1.425781 -5.40625 1.285156 -5.625 1.171875 -5.875 C 1.066406 -6.125 1.015625 -6.410156 1.015625 -6.734375 C 1.015625 -7.078125 1.082031 -7.390625 1.21875 -7.671875 C 1.363281 -7.960938 1.5625 -8.210938 1.8125 -8.421875 C 2.0625 -8.640625 2.351562 -8.804688 2.6875 -8.921875 C 3.03125 -9.046875 3.40625 -9.109375 3.8125 -9.109375 C 4.351562 -9.109375 4.847656 -9.003906 5.296875 -8.796875 C 5.753906 -8.597656 6.144531 -8.332031 6.46875 -8 L 5.859375 -7.265625 C 5.578125 -7.535156 5.269531 -7.742188 4.9375 -7.890625 C 4.613281 -8.035156 4.238281 -8.109375 3.8125 -8.109375 C 3.3125 -8.109375 2.910156 -7.992188 2.609375 -7.765625 C 2.304688 -7.535156 2.15625 -7.21875 2.15625 -6.8125 C 2.15625 -6.59375 2.195312 -6.40625 2.28125 -6.25 C 2.375 -6.101562 2.488281 -5.972656 2.625 -5.859375 C 2.769531 -5.742188 2.929688 -5.640625 3.109375 -5.546875 C 3.285156 -5.460938 3.460938 -5.382812 3.640625 -5.3125 L 4.90625 -4.78125 C 5.164062 -4.664062 5.40625 -4.535156 5.625 -4.390625 C 5.851562 -4.253906 6.050781 -4.09375 6.21875 -3.90625 C 6.382812 -3.71875 6.515625 -3.5 6.609375 -3.25 C 6.703125 -3 6.75 -2.710938 6.75 -2.390625 C 6.75 -2.035156 6.675781 -1.703125 6.53125 -1.390625 C 6.394531 -1.078125 6.191406 -0.804688 5.921875 -0.578125 C 5.660156 -0.347656 5.34375 -0.164062 4.96875 -0.03125 C 4.601562 0.09375 4.179688 0.15625 3.703125 0.15625 Z M 3.703125 0.15625 "/></g></g></g></svg>